<svg xmlns="http://www.w3.org/2000/svg" viewBox="0 0 32 32">
  <rect width="32" height="32" fill="#0c3849" rx="6"/>
  <!-- Mountain icon from logo, scaled and centered -->
  <g transform="translate(4, 4) scale(0.055)">
    <path fill="#ffffff" d="M255.44,102.58l-18.64,3.81s-38.68-44.39-38.8-44.27c.11.11-45.44,44.27-45.44,44.27l-12.89-1.69-22.54,15.63v79.65h161.76v-92.72l-10.23,9.12-13.21-13.78ZM263.52,184.61h-131.04v-42.45s.12-11.11.12-11.11l12.24-9.74,17.08,1.73,36.08-37.62v28.55l-21.9,37.17s51.27-20.01,51.27-20.09l36.15,53.56Z"/>
    <polygon fill="#2475a6" points="278.88 37.96 278.88 88.78 268.65 97.59 263.52 92.32 263.52 53.32 132.48 53.32 132.48 92.61 117.12 103.25 117.12 37.96 278.88 37.96"/>
  </g>
</svg>
